<?xml version="1.0" encoding="UTF-8"?>
<!DOCTYPE svg PUBLIC "-//W3C//DTD SVG 1.1//EN" "http://www.w3.org/Graphics/SVG/1.1/DTD/svg11.dtd">
<!-- Creator: CorelDRAW -->
<svg xmlns="http://www.w3.org/2000/svg" xml:space="preserve" width="50px" height="50px" version="1.1" style="shape-rendering:geometricPrecision; text-rendering:geometricPrecision; image-rendering:optimizeQuality; fill-rule:evenodd; clip-rule:evenodd"
viewBox="0 0 12.51 12.58"
 xmlns:xlink="http://www.w3.org/1999/xlink"
 xmlns:xodm="http://www.corel.com/coreldraw/odm/2003">
 <defs>
  <style type="text/css">
   <![CDATA[
    .fil1 {fill:#FF0A21;fill-rule:nonzero}
    .fil0 {fill:white;fill-rule:nonzero}
   ]]>
  </style>
 </defs>
 <g id="Warstwa_x0020_1">
  <metadata id="CorelCorpID_0Corel-Layer"/>
  <path class="fil0" d="M12.51 6.29c0,-0.83 -0.17,-1.63 -0.46,-2.36 -0.85,1.23 -3.03,1.93 -4.5,2.09 0.7,0.19 1.75,0.75 3.12,2.22 0,0 -0.94,0.52 -1.12,0.75 -0.23,-0.61 -1.29,-1.79 -2.48,-2.75 -0.01,0.39 -0.03,0.59 -0.05,1.04 -0.01,0.22 -0.02,0.24 -0.03,0.5 -0.07,1.3 -0.1,3.22 -1,4.24 -0.12,-0.26 0.05,-4.69 0.01,-5.55 -1.66,0.59 -3.04,3.06 -4.16,4.35 1.14,1.09 2.68,1.76 4.38,1.76 3.47,0 6.29,-2.81 6.29,-6.29z"/>
  <g>
   <path class="fil1" d="M10.98 2.1c-1.19,-1.32 -2.88,-2.1 -4.69,-2.1 -2.23,0 -4.2,1.17 -5.31,2.92 1.34,1.2 3.12,2.21 5.01,2.27 -0.06,-0.91 -0.09,-1.47 -0.11,-2.44 -0.04,0 1.01,0.1 1.33,0.04 -0.03,0.77 -0.03,1.55 -0.04,2.33 1.18,-0.19 2.93,-0.87 3.94,-1.78 -0.72,-0.31 -2.07,-0.54 -3.33,-0.54 0.26,-0.34 1.09,-0.94 3.2,-0.7l0 0zm0 0l0 0 0 0z"/>
  </g>
  <path class="fil1" d="M0.4 4.07c-0.26,0.69 -0.4,1.44 -0.4,2.22 0,1.32 0.41,2.54 1.1,3.55 0.23,-0.23 0.45,-0.47 0.67,-0.72 0.35,-0.4 0.68,-0.81 1.04,-1.2 0.59,-0.66 1.37,-1.47 2.18,-1.83 -1.44,-0.22 -3.55,-1.06 -4.59,-2.02z"/>
 </g>
</svg>
