<?xml version="1.0" encoding="UTF-8"?>
<!DOCTYPE svg PUBLIC "-//W3C//DTD SVG 1.1//EN" "http://www.w3.org/Graphics/SVG/1.1/DTD/svg11.dtd">
<!-- Creator: CorelDRAW -->
<svg xmlns="http://www.w3.org/2000/svg" xml:space="preserve" width="300px" height="76px" version="1.1" style="shape-rendering:geometricPrecision; text-rendering:geometricPrecision; image-rendering:optimizeQuality; fill-rule:evenodd; clip-rule:evenodd"
viewBox="0 0 300 75.51"
 xmlns:xlink="http://www.w3.org/1999/xlink"
 xmlns:xodm="http://www.corel.com/coreldraw/odm/2003"
 xmlns:dc="http://purl.org/dc/elements/1.1/"
 xmlns:cc="http://creativecommons.org/ns#"
 xmlns:rdf="http://www.w3.org/1999/02/22-rdf-syntax-ns#"
 xmlns:svg="http://www.w3.org/2000/svg">
 <defs>
  <style type="text/css">
   <![CDATA[
    .fil1 {fill:#FF0A21;fill-rule:nonzero}
    .fil0 {fill:white;fill-rule:nonzero}
   ]]>
  </style>
 </defs>
 <g id="Warstwa_x0020_1">
  <metadata id="CorelCorpID_0Corel-Layer"/>
  <g id="_1869019395440">
   <path class="fil0" d="M75.01 37.9c0,-5 -0.98,-9.77 -2.75,-14.14 -5.08,7.34 -18.17,11.58 -26.98,12.54 4.19,1.11 10.46,4.48 18.74,13.3 0,0 -5.7,3.12 -6.76,4.52 -1.39,-3.68 -7.72,-10.73 -14.86,-16.49 -0.08,2.3 -0.18,3.5 -0.31,6.2 -0.05,1.35 -0.11,1.48 -0.17,3.01 -0.46,7.81 -0.63,19.36 -6.01,25.48 -0.74,-1.57 0.28,-28.16 0.06,-33.33 -9.95,3.55 -18.29,18.34 -24.96,26.07 6.8,6.56 16.05,10.6 26.24,10.6 20.85,0 37.76,-16.9 37.76,-37.76z"/>
   <g>
    <path class="fil1" d="M65.84 12.76c-7.11,-7.96 -17.26,-12.61 -28.14,-12.61 -13.41,0 -25.19,6.99 -31.89,17.53 8.04,7.2 18.72,13.25 30.08,13.61 -0.35,-5.44 -0.56,-8.84 -0.66,-14.64 -0.24,-0.02 6.08,0.6 8.01,0.26 -0.23,4.62 -0.2,9.31 -0.28,13.94 7.1,-1.1 17.63,-5.2 23.68,-10.67 -4.33,-1.82 -12.43,-3.23 -20.01,-3.23 1.55,-2.04 6.57,-5.62 19.21,-4.19l0 0zm0 0l0 0 0 0z"/>
   </g>
   <path class="fil1" d="M2.35 24.61c-1.55,4.13 -2.41,8.62 -2.41,13.29 0,7.92 2.44,15.26 6.6,21.33 1.41,-1.38 2.73,-2.85 4.01,-4.33 2.09,-2.41 4.1,-4.89 6.25,-7.24 3.58,-3.92 8.23,-8.81 13.1,-10.95 -8.65,-1.3 -21.3,-6.4 -27.55,-12.1z"/>
   <path class="fil1" d="M111.39 52.75l-7.37 0 -9.41 -13.02c-0.22,-0.31 -0.48,-0.8 -0.79,-1.45l-0.09 0 0 14.47 -5.72 0 0 -29.54 5.72 0 0 13.97 0.09 0c0.17,-0.38 0.43,-0.87 0.81,-1.49l8.99 -12.48 6.88 0 -11 14.11 11.89 15.43z"/>
   <g>
    <path class="fil1" d="M125.43 44.18c0,1.43 -0.44,2.62 -1.3,3.56 -0.88,0.95 -1.98,1.42 -3.31,1.42 -0.98,0 -1.76,-0.27 -2.33,-0.79 -0.58,-0.52 -0.87,-1.19 -0.87,-2.03 0,-1.84 1.21,-2.91 3.62,-3.22l4.19 -0.54 0 1.6 0 0zm-3.23 -13.02c-1.21,0 -2.56,0.17 -4.07,0.51 -1.52,0.34 -2.74,0.78 -3.7,1.33l0 4.46c2.21,-1.57 4.57,-2.35 7.06,-2.35 2.63,0 3.94,1.34 3.94,4.03l-5.88 0.81c-4.79,0.64 -7.18,2.97 -7.18,7 0,1.93 0.59,3.46 1.78,4.61 1.19,1.14 2.8,1.71 4.84,1.71 2.79,0 4.9,-1.21 6.32,-3.63l0.1 0 0 3.11 5.34 0 0 -12.93c0,-5.77 -2.85,-8.66 -8.55,-8.66l0 0zm0 0l0 0 0 0z"/>
   </g>
   <path class="fil1" d="M135.73 25.55c0,-0.86 0.3,-1.57 0.91,-2.14 0.61,-0.58 1.39,-0.87 2.35,-0.87 0.94,0 1.72,0.28 2.35,0.85 0.63,0.57 0.95,1.29 0.95,2.16 0,0.87 -0.32,1.6 -0.94,2.17 -0.62,0.58 -1.4,0.86 -2.36,0.86 -0.95,0 -1.73,-0.29 -2.35,-0.88 -0.61,-0.59 -0.91,-1.31 -0.91,-2.15z"/>
   <rect class="fil1" x="136.16" y="31.66" width="5.57" height="21.09"/>
   <polygon class="fil1" points="145.17,50.54 156.29,35.91 146.23,35.91 146.23,31.66 163.57,31.66 163.57,34.25 152.84,48.49 163.61,48.49 163.61,52.75 145.17,52.75 "/>
   <path class="fil1" d="M171.66 40.1c0.21,-1.52 0.76,-2.74 1.63,-3.65 0.88,-0.91 1.89,-1.36 3.04,-1.36 2.76,0 4.13,1.67 4.13,5.01l-8.8 0zm14.08 1.21c0,-3.16 -0.82,-5.64 -2.47,-7.44 -1.64,-1.81 -3.94,-2.71 -6.88,-2.71 -2.94,0 -5.39,1.04 -7.36,3.14 -1.96,2.09 -2.93,4.81 -2.93,8.15 0,3.41 0.91,6.07 2.73,7.97 1.83,1.9 4.38,2.85 7.66,2.85 3.06,0 5.57,-0.57 7.52,-1.71l0 -4.25c-1.83,1.23 -3.92,1.85 -6.26,1.85 -3.83,0 -5.87,-1.8 -6.09,-5.38l14.08 0 0 -2.47 0 0z"/>
   <path class="fil1" d="M209.5 52.75l-5.58 0 0 -11.82c0,-3.61 -1.31,-5.42 -3.91,-5.42 -1.31,0 -2.38,0.49 -3.2,1.48 -0.83,0.98 -1.24,2.22 -1.24,3.74l0 12.02 -5.59 0 0 -21.09 5.59 0 0 3.39 0.06 0c1.55,-2.6 3.83,-3.89 6.85,-3.89 4.68,0 7.02,2.89 7.02,8.68l0 12.91 0 0z"/>
   <g>
    <path class="fil0" d="M289.68 45.88c0,4.3 1.57,7.26 6.23,7.26 1.34,0 2.82,-0.4 4.03,-0.8l-0.71 -2.78c-0.72,0.26 -1.71,0.58 -2.47,0.58 -2.51,0 -3.36,-1.53 -3.36,-4.22l0 -12.1 5.87 0 0 -3.01 -5.87 0 0 -6.1 -3.1 0 -0.44 6.1 -3.41 0.23 0 2.78 3.23 0 0 12.06 0 0zm-25.16 6.72l3.68 0 0 -15.78c2.2,-2.2 3.72,-3.36 5.96,-3.36 2.87,0 4.13,1.75 4.13,5.83l0 13.31 3.67 0 0 -13.81c0,-5.56 -2.06,-8.52 -6.63,-8.52 -3.01,0 -5.25,1.62 -7.31,3.68l-0.14 0 -0.31 -3.14 -3.05 0 0 21.79zm-20.27 -12.51c0.45,-4.39 3.23,-6.9 6.28,-6.9 3.41,0 5.38,2.47 5.38,6.9l-11.66 0zm-3.58 1.66c0,7.13 4.62,11.39 10.44,11.39 2.96,0 5.3,-1.03 7.18,-2.24l-1.3 -2.42c-1.62,1.03 -3.37,1.7 -5.43,1.7 -4.17,0 -6.99,-2.95 -7.26,-7.66l14.71 0c0.09,-0.54 0.13,-1.26 0.13,-2.02 0,-6.24 -3.14,-10.23 -8.7,-10.23 -4.98,0 -9.78,4.35 -9.78,11.48l0.01 0zm-3.14 10.85l-7.49 -12.82c3.99,-1.03 6.59,-3.77 6.59,-8.34 0,-6.1 -4.3,-8.25 -10.27,-8.25l-9.24 0 0 29.41 3.77 0 0 -12.42 5.29 0 7.09 12.42 4.26 0zm-16.64 -26.41l4.93 0c4.58,0 7.09,1.39 7.09,5.25 0,3.81 -2.51,5.69 -7.09,5.69l-4.93 0 0 -10.94z"/>
   </g>
  </g>
 </g>
</svg>
