<?xml version="1.0" encoding="UTF-8"?>
<!DOCTYPE svg PUBLIC "-//W3C//DTD SVG 1.1//EN" "http://www.w3.org/Graphics/SVG/1.1/DTD/svg11.dtd">
<!-- Creator: CorelDRAW -->
<svg xmlns="http://www.w3.org/2000/svg" xml:space="preserve" width="300px" height="75px" version="1.1" style="shape-rendering:geometricPrecision; text-rendering:geometricPrecision; image-rendering:optimizeQuality; fill-rule:evenodd; clip-rule:evenodd"
viewBox="0 0 131.1 33"
 xmlns:xlink="http://www.w3.org/1999/xlink"
 xmlns:xodm="http://www.corel.com/coreldraw/odm/2003">
 <defs>
  <style type="text/css">
   <![CDATA[
    .fil0 {fill:white;fill-rule:nonzero}
   ]]>
  </style>
 </defs>
 <g id="Warstwa_x0020_1">
  <metadata id="CorelCorpID_0Corel-Layer"/>
  <path class="fil0" d="M32.81 16.5c0,-2.19 -0.43,-4.27 -1.21,-6.18 -2.22,3.21 -7.94,5.06 -11.79,5.48 1.83,0.48 4.57,1.96 8.19,5.81 0,0 -2.49,1.36 -2.95,1.98 -0.61,-1.61 -3.37,-4.69 -6.49,-7.21 -0.04,1 -0.08,1.53 -0.14,2.71 -0.02,0.59 -0.05,0.65 -0.07,1.31 -0.21,3.42 -0.28,8.46 -2.63,11.14 -0.32,-0.69 0.12,-12.31 0.03,-14.57 -4.35,1.55 -8,8.02 -10.91,11.4 2.97,2.86 7.01,4.63 11.46,4.63 9.12,0 16.51,-7.39 16.51,-16.5z"/>
  <g id="_2577880428064">
   <path class="fil0" d="M28.8 5.51c-3.11,-3.48 -7.54,-5.51 -12.3,-5.51 -5.86,0 -11.01,3.05 -13.93,7.66 3.51,3.15 8.18,5.79 13.14,5.95 -0.15,-2.38 -0.24,-3.86 -0.29,-6.4 -0.1,-0.01 2.66,0.26 3.5,0.11 -0.1,2.02 -0.09,4.07 -0.12,6.1 3.1,-0.48 7.7,-2.28 10.35,-4.67 -1.89,-0.79 -5.43,-1.41 -8.75,-1.41 0.68,-0.89 2.87,-2.45 8.4,-1.83l0 0 0 0zm0 0l0 0 0 0z"/>
  </g>
  <path class="fil0" d="M1.05 10.69c-0.67,1.8 -1.05,3.77 -1.05,5.81 0,3.46 1.07,6.67 2.88,9.32 0.62,-0.61 1.2,-1.25 1.76,-1.89 0.91,-1.06 1.79,-2.14 2.73,-3.17 1.56,-1.71 3.59,-3.85 5.72,-4.78 -3.78,-0.57 -9.31,-2.8 -12.04,-5.29l0 0z"/>
  <path class="fil0" d="M48.7 22.99l-3.22 0 -4.11 -5.69c-0.1,-0.14 -0.21,-0.35 -0.34,-0.64l-0.04 0 0 6.33 -2.5 0 0 -12.91 2.5 0 0 6.1 0.04 0c0.07,-0.16 0.18,-0.38 0.35,-0.65l3.93 -5.45 3 0 -4.8 6.16 5.19 6.75 0 0z"/>
  <g id="_2577880429888">
   <path class="fil0" d="M54.84 19.24c0,0.63 -0.19,1.15 -0.57,1.56 -0.38,0.41 -0.86,0.62 -1.45,0.62 -0.42,0 -0.76,-0.12 -1.01,-0.35 -0.26,-0.22 -0.38,-0.52 -0.38,-0.88 0,-0.81 0.53,-1.28 1.58,-1.41l1.83 -0.24 0 0.7 0 0 0 0zm-1.41 -5.69c-0.53,0 -1.12,0.08 -1.78,0.22 -0.67,0.15 -1.2,0.35 -1.62,0.59l0 1.94c0.97,-0.68 2,-1.02 3.09,-1.02 1.15,0 1.72,0.58 1.72,1.76l-2.57 0.35c-2.09,0.28 -3.14,1.3 -3.14,3.06 0,0.85 0.26,1.51 0.78,2.02 0.52,0.49 1.22,0.74 2.12,0.74 1.21,0 2.14,-0.52 2.76,-1.58l0.04 0 0 1.36 2.33 0 0 -5.65c0,-2.53 -1.24,-3.79 -3.73,-3.79l0 0zm0 0l0 0 0 0z"/>
  </g>
  <path class="fil0" d="M59.34 11.1c0,-0.38 0.13,-0.69 0.4,-0.94 0.26,-0.25 0.61,-0.38 1.03,-0.38 0.41,0 0.75,0.13 1.02,0.38 0.28,0.25 0.42,0.56 0.42,0.94 0,0.38 -0.14,0.7 -0.41,0.95 -0.27,0.25 -0.62,0.37 -1.03,0.37 -0.42,0 -0.76,-0.12 -1.03,-0.38 -0.27,-0.26 -0.4,-0.57 -0.4,-0.94l0 0z"/>
  <rect class="fil0" x="59.53" y="13.77" width="2.43" height="9.22"/>
  <polygon class="fil0" points="63.47,22.02 68.33,15.63 63.93,15.63 63.93,13.77 71.51,13.77 71.51,14.9 66.82,21.12 71.52,21.12 71.52,22.99 63.47,22.99 "/>
  <path class="fil0" d="M75.04 17.46c0.09,-0.67 0.33,-1.2 0.71,-1.6 0.39,-0.39 0.83,-0.59 1.33,-0.59 1.21,0 1.81,0.73 1.81,2.19l-3.85 0zm6.15 0.53c0,-1.38 -0.35,-2.47 -1.07,-3.25 -0.72,-0.8 -1.73,-1.19 -3.01,-1.19 -1.29,0 -2.36,0.46 -3.22,1.37 -0.85,0.92 -1.28,2.11 -1.28,3.57 0,1.49 0.4,2.65 1.2,3.48 0.79,0.83 1.91,1.24 3.34,1.24 1.34,0 2.44,-0.25 3.29,-0.74l0 -1.86c-0.8,0.54 -1.71,0.81 -2.74,0.81 -1.67,0 -2.56,-0.79 -2.66,-2.35l6.15 0 0 -1.08 0 0 0 0z"/>
  <path class="fil0" d="M91.58 22.99l-2.44 0 0 -5.17c0,-1.58 -0.57,-2.37 -1.71,-2.37 -0.57,0 -1.04,0.22 -1.4,0.65 -0.36,0.43 -0.54,0.97 -0.54,1.63l0 5.26 -2.44 0 0 -9.22 2.44 0 0 1.48 0.03 0c0.67,-1.14 1.67,-1.7 2.99,-1.7 2.05,0 3.07,1.26 3.07,3.79l0 5.65 0 0 0 0z"/>
  <g id="_2577880439968">
   <path class="fil0" d="M126.62 19.98c0,1.88 0.68,3.18 2.72,3.18 0.58,0 1.23,-0.18 1.76,-0.35l-0.31 -1.22c-0.31,0.12 -0.75,0.26 -1.08,0.26 -1.1,0 -1.47,-0.67 -1.47,-1.85l0 -5.29 2.57 0 0 -1.31 -2.57 0 0 -2.67 -1.35 0 -0.19 2.67 -1.49 0.1 0 1.21 1.41 0 0 5.27 0 0zm-11 2.94l1.61 0 0 -6.9c0.96,-0.96 1.63,-1.46 2.6,-1.46 1.26,0 1.81,0.76 1.81,2.54l0 5.82 1.6 0 0 -6.03c0,-2.43 -0.9,-3.73 -2.89,-3.73 -1.32,0 -2.3,0.71 -3.2,1.61l-0.06 0 -0.14 -1.37 -1.33 0 0 9.52 0 0zm-8.86 -5.47c0.2,-1.91 1.42,-3.01 2.75,-3.01 1.49,0 2.35,1.08 2.35,3.01l-5.1 0zm-1.56 0.73c0,3.12 2.02,4.98 4.56,4.98 1.3,0 2.32,-0.45 3.14,-0.98l-0.57 -1.06c-0.71,0.45 -1.47,0.74 -2.37,0.74 -1.82,0 -3.06,-1.29 -3.17,-3.34l6.42 0c0.04,-0.24 0.06,-0.55 0.06,-0.89 0,-2.72 -1.37,-4.47 -3.8,-4.47 -2.18,0 -4.27,1.9 -4.27,5.02l0 0 0 0zm-1.37 4.74l-3.28 -5.6c1.75,-0.45 2.88,-1.65 2.88,-3.65 0,-2.66 -1.88,-3.6 -4.48,-3.6l-4.04 0 0 12.85 1.65 0 0 -5.43 2.31 0 3.1 5.43 1.86 0zm-7.27 -11.54l2.15 0c2,0 3.1,0.61 3.1,2.29 0,1.67 -1.1,2.49 -3.1,2.49l-2.15 0 0 -4.78z"/>
  </g>
 </g>
</svg>
